<?xml version="1.0" encoding="UTF-8"?>
<svg xmlns="http://www.w3.org/2000/svg" xmlns:xlink="http://www.w3.org/1999/xlink" width="79px" height="96px" viewBox="0 0 79 96" version="1.1">
<g id="surface1">
<path style=" stroke:none;fill-rule:evenodd;fill:rgb(89.411765%,29.411765%,30.196078%);fill-opacity:1;" d="M 17.957031 0.0390625 L 55.320312 0.0390625 L 79 25.640625 L 79 85.179688 C 79 91.09375 74.128906 95.964844 68.210938 95.964844 L 17.957031 95.964844 C 12.039062 95.964844 7.167969 91.113281 7.167969 85.179688 L 7.167969 10.820312 C 7.167969 4.890625 12.023438 0.0390625 17.957031 0.0390625 Z M 17.957031 0.0390625 "/>
<path style=" stroke:none;fill-rule:evenodd;fill:rgb(80.392157%,26.666667%,27.058824%);fill-opacity:1;" d="M 63.992188 25.050781 L 63.988281 25.050781 L 79 35.429688 L 79 25.667969 L 68.800781 25.667969 C 67.023438 25.640625 65.421875 25.429688 63.992188 25.050781 Z M 63.992188 25.050781 "/>
<path style=" stroke:none;fill-rule:evenodd;fill:rgb(98.431373%,81.176471%,81.568627%);fill-opacity:1;" d="M 55.320312 0.0351562 L 79 25.636719 L 79 25.667969 L 68.800781 25.667969 C 60.34375 25.535156 55.789062 21.28125 55.320312 14.160156 Z M 55.320312 0.0351562 "/>
<path style=" stroke:none;fill-rule:nonzero;fill:rgb(80.392157%,26.666667%,27.058824%);fill-opacity:1;" d="M 0 81.019531 L 0 47.550781 L 0.00390625 47.3125 C 0.128906 44.230469 2.695312 41.742188 5.808594 41.742188 L 7.167969 41.742188 L 7.167969 51.230469 L 71.527344 51.230469 C 73.941406 51.230469 75.914062 53.199219 75.914062 55.613281 L 75.914062 81.019531 C 75.914062 83.425781 73.933594 85.402344 71.527344 85.402344 L 4.386719 85.402344 C 1.976562 85.402344 0 83.425781 0 81.019531 Z M 0 81.019531 "/>
<path style=" stroke:none;fill-rule:nonzero;fill:rgb(58.823529%,19.607843%,19.607843%);fill-opacity:1;" d="M 26.917969 45.105469 C 27.796875 45.105469 28.511719 45.820312 28.511719 46.699219 C 28.511719 47.578125 27.796875 48.292969 26.917969 48.292969 C 26.035156 48.292969 25.324219 47.578125 25.324219 46.699219 L 55.941406 46.699219 C 55.941406 45.820312 56.65625 45.105469 57.539062 45.105469 C 58.417969 45.105469 59.132812 45.820312 59.132812 46.699219 C 59.132812 47.578125 58.417969 48.292969 57.539062 48.292969 L 26.917969 48.292969 Z M 26.917969 34.011719 C 30.863281 25.5625 40.917969 21.910156 49.375 25.851562 C 57.828125 29.796875 61.484375 39.84375 57.539062 48.292969 L 89.871094 48.292969 C 89.871094 57.210938 82.632812 64.445312 73.703125 64.445312 C 64.773438 64.445312 57.539062 57.210938 57.539062 48.292969 L 26.917969 48.292969 Z M 26.917969 34.011719 "/>
<path style=" stroke:none;fill-rule:nonzero;fill:rgb(100%,100%,100%);fill-opacity:1;" d="M 2.125 51.820312 L 2.125 80.832031 C 2.125 82.292969 3.324219 83.488281 4.785156 83.488281 L 71.339844 83.488281 C 72.800781 83.488281 74 82.292969 74 80.832031 L 74 55.800781 C 74 54.339844 72.800781 53.140625 71.339844 53.140625 L 7.109375 53.140625 C 4.742188 53.125 3.433594 52.835938 2.125 51.820312 Z M 2.125 51.820312 "/>
<path style=" stroke:none;fill-rule:nonzero;fill:rgb(10.196078%,10.196078%,10.196078%);fill-opacity:1;" d="M 19.277344 75.332031 L 18.785156 71.402344 L 20.828125 71.402344 C 21.335938 71.402344 21.660156 71.332031 21.800781 71.191406 C 21.9375 71.054688 22.007812 70.875 22.007812 70.664062 L 22.007812 63.90625 L 19.96875 63.90625 L 19.96875 59.976562 L 26.925781 59.976562 L 26.925781 71.277344 C 26.925781 72.605469 26.597656 73.613281 25.941406 74.300781 C 25.285156 74.988281 24.34375 75.332031 23.113281 75.332031 Z M 28.953125 75.0625 L 29.640625 71.007812 C 31.148438 71.382812 32.507812 71.574219 33.710938 71.574219 C 34.917969 71.574219 35.886719 71.523438 36.625 71.425781 L 36.625 70.195312 L 34.410156 70 C 32.414062 69.820312 31.039062 69.339844 30.292969 68.5625 C 29.546875 67.785156 29.175781 66.636719 29.175781 65.113281 C 29.175781 63.015625 29.628906 61.574219 30.539062 60.789062 C 31.449219 60 32.996094 59.609375 35.175781 59.609375 C 37.355469 59.609375 39.320312 59.8125 41.074219 60.222656 L 40.460938 64.152344 C 38.9375 63.90625 37.714844 63.785156 36.796875 63.785156 C 35.878906 63.785156 35.101562 63.824219 34.460938 63.90625 L 34.460938 65.113281 L 36.230469 65.285156 C 38.378906 65.496094 39.863281 66.007812 40.683594 66.820312 C 41.5 67.628906 41.910156 68.753906 41.910156 70.195312 C 41.910156 71.230469 41.773438 72.101562 41.492188 72.8125 C 41.214844 73.527344 40.882812 74.066406 40.496094 74.433594 C 40.113281 74.804688 39.566406 75.085938 38.863281 75.28125 C 38.15625 75.480469 37.539062 75.597656 37.007812 75.640625 C 36.472656 75.679688 35.765625 75.699219 34.878906 75.699219 C 32.75 75.699219 30.773438 75.488281 28.953125 75.0625 Z M 52.421875 71.621094 L 49.226562 71.621094 L 49.226562 75.332031 L 44.308594 75.332031 L 44.308594 59.976562 L 52.054688 59.976562 C 55.578125 59.976562 57.339844 61.867188 57.339844 65.652344 C 57.339844 67.730469 56.882812 69.273438 55.964844 70.269531 C 55.617188 70.648438 55.144531 70.96875 54.535156 71.230469 C 53.929688 71.492188 53.226562 71.621094 52.421875 71.621094 Z M 49.226562 63.90625 L 49.226562 67.691406 L 50.355469 67.691406 C 50.949219 67.691406 51.378906 67.628906 51.648438 67.507812 C 51.917969 67.382812 52.054688 67.101562 52.054688 66.660156 L 52.054688 64.941406 C 52.054688 64.496094 51.917969 64.214844 51.648438 64.09375 C 51.378906 63.96875 50.949219 63.90625 50.355469 63.90625 Z M 49.226562 63.90625 "/>
</g>
</svg>
